<svg xmlns="http://www.w3.org/2000/svg" width="27.889" height="29.973" viewBox="0 0 27.889 29.973">
  <g id="Group_1330" data-name="Group 1330" transform="translate(-12623 -6763)">
    <g id="order" transform="translate(12605.19 6763)">
      <path id="Path_1003" data-name="Path 1003" d="M37.3,139.6H17.81l1.067-19.1H25.8l.878.465.878-.465h8.594Z" transform="translate(0 -113.446)" fill="#53d8e3"/>
      <ellipse id="Ellipse_59" data-name="Ellipse 59" cx="7.64" cy="7.64" rx="7.64" ry="7.64" transform="translate(30.419 14.694)" fill="#6aa5fe"/>
      <path id="Path_1006" data-name="Path 1006" d="M306.15,333.752l-3.815,3.815-.678.679-3.137-3.137,1.242-1.242,1.894,1.894.678-.678,2.573-2.574Z" transform="translate(-264.277 -313.045)" fill="#f1f1f1"/>
      <path id="Path_1008" data-name="Path 1008" d="M105.088,5.249v6.211h-1.756V5.249a3.493,3.493,0,0,0-6.985,0v6.211H94.59V5.249a5.249,5.249,0,0,1,10.5,0Z" transform="translate(-72.285)" fill="#4e588b"/>
      <path id="Path_1009" data-name="Path 1009" d="M189.5,5.249v6.211h-1.756V5.249a3.5,3.5,0,0,0-3.493-3.493V0A5.255,5.255,0,0,1,189.5,5.249Z" transform="translate(-156.696 0)" fill="#293e65"/>
      <path id="Path_1010" data-name="Path 1010" d="M154.253,120.5h1.756v4.405h-1.756Z" transform="translate(-128.455 -113.446)" fill="#4e588b"/>
      <path id="Path_1011" data-name="Path 1011" d="M140.45,187.018v4.462h-3.82v-4.462l1.91-1.268h0Z" transform="translate(-111.864 -174.876)" fill="#fe0"/>
      <path id="Path_1012" data-name="Path 1012" d="M171.17,187.027v4.462h-1.91V185.76Z" transform="translate(-142.584 -174.885)" fill="#fc0"/>
    </g>
  </g>
</svg>
