<svg xmlns="http://www.w3.org/2000/svg" xmlns:xlink="http://www.w3.org/1999/xlink" width="30" height="30" viewBox="0 0 30 30">
  <defs>
    <linearGradient id="linear-gradient" x1="0.072" y1="0.735" x2="0.928" y2="0.265" gradientUnits="objectBoundingBox">
      <stop offset="0" stop-color="#eaeaea"/>
      <stop offset="0.01" stop-color="#7ddce4"/>
      <stop offset="0.345" stop-color="#a5e0e5"/>
      <stop offset="1" stop-color="#53d8e3"/>
    </linearGradient>
  </defs>
  <g id="Group_1331" data-name="Group 1331" transform="translate(-12447 -6884)">
    <path id="setting" d="M18.666,15a3.656,3.656,0,1,1-1.071-2.595A3.666,3.666,0,0,1,18.666,15ZM30,14.484v1.031a3.084,3.084,0,0,1-3.066,3.075h-.872a13.331,13.331,0,0,1-.7,1.687l.609.609a3.084,3.084,0,0,1,0,4.341l-.741.731a3.084,3.084,0,0,1-4.341,0l-.609-.609a13.284,13.284,0,0,1-1.687.694v.872A3.084,3.084,0,0,1,15.516,30H14.484a3.084,3.084,0,0,1-3.075-3.066v-.872a13.931,13.931,0,0,1-1.687-.7l-.609.609a3.094,3.094,0,0,1-4.35,0l-.722-.731a3.084,3.084,0,0,1,0-4.341l.647-.619a12.037,12.037,0,0,1-.694-1.687H3.084A3.094,3.094,0,0,1,0,15.516V14.484a3.084,3.084,0,0,1,3.075-3.075h.862a12.037,12.037,0,0,1,.75-1.688l-.6-.609a3.094,3.094,0,0,1,0-4.35l.722-.731a3.094,3.094,0,0,1,4.35,0l.609.609a12.084,12.084,0,0,1,1.688-.7V3.084A3.094,3.094,0,0,1,14.484,0h1.031a3.094,3.094,0,0,1,3.075,3.075v.862a12.037,12.037,0,0,1,1.688.694l.609-.609a3.084,3.084,0,0,1,4.341,0l.741.731a3.094,3.094,0,0,1,0,4.35l-.609.609a12.037,12.037,0,0,1,.694,1.688h.872A3.084,3.084,0,0,1,30,14.484ZM20.625,15A5.625,5.625,0,1,0,15,20.625,5.625,5.625,0,0,0,20.625,15Z" transform="translate(12447 6884)" fill="url(#linear-gradient)"/>
  </g>
</svg>
