<svg xmlns="http://www.w3.org/2000/svg" width="26.675" height="28.5" viewBox="0 0 26.675 28.5">
  <g id="switch" transform="translate(-0.494)">
    <path id="Path_1129" data-name="Path 1129" d="M13.832,27.527a12.833,12.833,0,0,0,5.133-24.59,1.167,1.167,0,1,0-.933,2.139,10.5,10.5,0,1,1-8.4,0A1.167,1.167,0,1,0,8.7,2.937a12.833,12.833,0,0,0,5.133,24.59Z" transform="translate(0 0.473)" fill="#53d8e3" stroke="#53d8e3" stroke-width="1"/>
    <path id="Path_1130" data-name="Path 1130" d="M12.167,11.667A1.167,1.167,0,0,0,13.333,10.5V1.167a1.167,1.167,0,1,0-2.333,0V10.5A1.167,1.167,0,0,0,12.167,11.667Z" transform="translate(1.665)" fill="#6aa5fe"/>
  </g>
</svg>
