<svg xmlns="http://www.w3.org/2000/svg" width="41.996" height="41.598" viewBox="0 0 41.996 41.598">
  <g id="Group_1341" data-name="Group 1341" transform="translate(-12623 -6635)">
    <g id="Group_1325" data-name="Group 1325">
      <g id="Layer_2" data-name="Layer 2" transform="translate(12623 6634.999)">
        <g id="Layer_1" data-name="Layer 1" transform="translate(0 0.001)">
          <g id="add_to_favorites" data-name="add to favorites">
            <g id="Group_1182" data-name="Group 1182">
              <path id="Path_967" data-name="Path 967" d="M3.951,19.262a.794.794,0,0,0,.6,1.3.807.807,0,0,0,.521-1.4.829.829,0,0,0-1.123.1Z" transform="translate(3.238 16.322)" fill="#fff"/>
              <path id="Path_968" data-name="Path 968" d="M7.117,2.464a1,1,0,0,0,.331-.074.79.79,0,1,0-.331.074Z" transform="translate(5.435 0.757)" fill="#fff"/>
              <path id="Path_969" data-name="Path 969" d="M10.065,1.578h.123a.792.792,0,0,0,.671-.889.811.811,0,0,0-.9-.681.79.79,0,0,0,.1,1.569Z" transform="translate(7.995 0.001)" fill="#fff"/>
              <path id="Path_970" data-name="Path 970" d="M4.522,4.157a.774.774,0,0,0,.521-.206C5.829,3.3,4.769,2.08,4,2.76a.785.785,0,0,0-.078,1.116A.837.837,0,0,0,4.522,4.157Z" transform="translate(3.205 2.199)" fill="#fff"/>
              <path id="Path_971" data-name="Path 971" d="M7.483,20.734a.781.781,0,1,0,.377,1.039.781.781,0,0,0-.377-1.039Z" transform="translate(5.476 17.757)" fill="#fff"/>
              <path id="Path_972" data-name="Path 972" d="M10.244,21.526a.807.807,0,0,0-.9.681.792.792,0,1,0,.9-.681Z" transform="translate(8.023 18.496)" fill="#fff"/>
              <path id="Path_973" data-name="Path 973" d="M.994,9.279A.8.8,0,0,0,1.437,7.75.8.8,0,0,0,.994,9.279Z" transform="translate(0.376 6.638)" fill="#fff"/>
              <path id="Path_974" data-name="Path 974" d="M2.084,16.778a.787.787,0,0,0,.85,1.322.787.787,0,0,0-.85-1.322Z" transform="translate(1.505 14.328)" fill="#fff"/>
              <path id="Path_975" data-name="Path 975" d="M1.577,11.56A.789.789,0,1,0,0,11.579a.8.8,0,0,0,.794.794.807.807,0,0,0,.783-.813Z" transform="translate(0 9.265)" fill="#fff"/>
              <path id="Path_976" data-name="Path 976" d="M1,13.876a.788.788,0,0,0,.452,1.51A.788.788,0,0,0,1,13.876Z" transform="translate(0.393 11.903)" fill="#fff"/>
              <path id="Path_977" data-name="Path 977" d="M2.073,6.354a.788.788,0,1,0-.236-1.075.768.768,0,0,0,.236,1.075Z" transform="translate(1.47 4.216)" fill="#fff"/>
              <path id="Path_978" data-name="Path 978" d="M22.52,10.714c-1.019-.017-1.051,1.69.009,1.662C23.576,12.4,23.552,10.7,22.52,10.714Z" transform="translate(18.692 9.208)" fill="#fff"/>
              <path id="Path_979" data-name="Path 979" d="M21.241,16.771a.774.774,0,0,0-1.1.227.794.794,0,1,0,1.1-.227Z" transform="translate(17.203 14.297)" fill="#fff"/>
              <path id="Path_980" data-name="Path 980" d="M18.264,19.181a.768.768,0,0,0-.082,1.1.794.794,0,0,0,1.2-1.04.785.785,0,0,0-1.118-.056Z" transform="translate(15.464 16.308)" fill="#fff"/>
              <path id="Path_981" data-name="Path 981" d="M20.786,6.423a.872.872,0,0,0,.426-.115.788.788,0,1,0-1.088-.227.775.775,0,0,0,.662.342Z" transform="translate(17.186 4.175)" fill="#fff"/>
              <path id="Path_982" data-name="Path 982" d="M22.084,9.24A1.186,1.186,0,0,0,22.31,9.2a.79.79,0,1,0-.227.035Z" transform="translate(18.297 6.582)" fill="#fff"/>
              <path id="Path_983" data-name="Path 983" d="M22.314,13.858a.787.787,0,1,0,.533.977A.787.787,0,0,0,22.314,13.858Z" transform="translate(18.312 11.883)" fill="#fff"/>
              <path id="Path_984" data-name="Path 984" d="M13.1,21.525a.792.792,0,1,0,.857.68A.792.792,0,0,0,13.1,21.525Z" transform="translate(10.703 18.497)" fill="#fff"/>
              <path id="Path_985" data-name="Path 985" d="M13.064,1.559A.783.783,0,0,0,13.279.01a.772.772,0,0,0-.887.662A.787.787,0,0,0,13.064,1.559Z" transform="translate(10.646 -0.001)" fill="#fff"/>
              <path id="Path_986" data-name="Path 986" d="M15.818,2.378a.772.772,0,0,0,1.039-.417A.787.787,0,0,0,16.469.922a.8.8,0,1,0-.651,1.456Z" transform="translate(13.191 0.731)" fill="#fff"/>
              <path id="Path_987" data-name="Path 987" d="M15.844,20.712a1.378,1.378,0,1,0,.009,0Z" transform="translate(13.239 17.761)" fill="#fff"/>
              <path id="Path_988" data-name="Path 988" d="M18.228,3.918a.816.816,0,0,0,1.116-.076.79.79,0,0,0-.084-1.116c-.761-.716-1.817.545-1.03,1.19Z" transform="translate(15.431 2.158)" fill="#fff"/>
            </g>
            <path id="Path_989" data-name="Path 989" d="M30.694,12.622A7.141,7.141,0,0,0,17.437,9.009,7.144,7.144,0,0,0,4.16,12.622c0,8.407,13.27,16.511,13.27,16.511S30.694,21.029,30.694,12.622Z" transform="translate(3.576 4.75)" fill="#5067c4"/>
          </g>
        </g>
      </g>
      <g id="Layer_2-2" data-name="Layer 2" transform="translate(12626.727 6640.35)">
        <g id="Layer_1-2" data-name="Layer 1" transform="translate(0 0.001)">
          <g id="add_to_favorites-2" data-name="add to favorites">
            <path id="Path_989-2" data-name="Path 989" d="M26.7,12.622c-.027-3.194-1.853-5.978-4.47-6.818a5.7,5.7,0,0,0-6.79,3.2c-1.4-2.751-4.177-4.071-6.8-3.229S4.18,9.418,4.16,12.622c0,8.407,11.271,16.511,11.271,16.511S26.7,21.029,26.7,12.622Z" transform="translate(3.576 2.489)" fill="#53d8e3"/>
          </g>
        </g>
      </g>
    </g>
  </g>
</svg>
